<svg xmlns="http://www.w3.org/2000/svg" viewBox="0 0 64 64" aria-labelledby="title" role="img">
  <title>Apple icon</title>
  <path fill="#a83232" d="M45.5 12.5c-2.7 0-5.3 1.5-6.5 3.2-1.2 1.7-1.9 3.6-2.3 3.6-.5 0-.8-1.5-2.4-3.1-1.6-1.7-4-3.4-6.8-3.4-6.4 0-11.5 6-11.5 13.4 0 4.4 1.6 8.6 4.5 12.3C23.9 45.5 28 50 32 50c4 0 8.2-4.5 11.6-11.5 2.5-4.9 3.9-10.1 3.9-14.5 0-6.2-3.2-11.5-2-11.5z"/>
  <path fill="#7f2121" d="M20.5 15.5c-1.8 1.7-3.1 4.6-3.1 7.8 0 4.1 1.4 8.1 3.7 11.3 3 4.1 6.3 6.4 11 6.4 5.3 0 9.2-4.1 12-10.3 2.2-4.7 3-9.1 3-12.7 0-2.4-.4-3.5-1.4-4.8-1.2 0-4.1 1.7-5.7 3.7-.9 1.2-1.4 2-1.8 2-.6 0-1.2-1.1-2.4-2.5-1.7-2.1-4.4-4.2-7.6-4.2-2.7 0-5.5 1.5-7.7 3.3z" opacity=".2"/>
  <path fill="#5f9323" d="M36.5 12.5c0 3.3 2.7 6 6 6 1 0 2-.3 2.9-.7 1.7-.9 2.6-2.3 3.1-3.5.7-1.9.5-3.7.4-4.8-.2-2.2-.7-4.7-2-4.5-2.2.3-4.9 1.4-6.5 3.1-2 2-3.9 4.7-3.9 8.4z"/>
</svg>
